<svg version="1.1" id="Layer_1" xmlns="http://www.w3.org/2000/svg" xmlns:xlink="http://www.w3.org/1999/xlink" x="0px" y="0px"
	 viewBox="0 0 464.384 98.63" style="enable-background:new 0 0 464.384 98.63;" xml:space="preserve">
<defs>
	<style type="text/css">
		.outline {
			fill:none;
			stroke:#e39c32;
			stroke-miterlimit: 10;
			stroke-dasharray: 800;
			stroke-dashoffset: 0;
			-webkit-animation: dash 5s linear forwards;
			-0-animation: dash 5s linear forwards;
			-moz-animation: dash 5s linear forwards;
			animation: dash 5s linear forwards;
		}
		@-webkit-keyframes dash {
			from {
				stroke-dashoffset: 800;
			}
			to {
				stroke-dashoffset: 0;
			}
		}
		@keyframes dash {
			from {
				stroke-dashoffset: 800;
			}
			to {
				stroke-dashoffset: 0;
			}
		}
		@-moz-keyframes dash {
			from {
				stroke-dashoffset: 800;
			}
			to {
				stroke-dashoffset: 0;
			}
		}
	</style>
</defs>
<g>
	<path class="outline" d="M8.04,9.533h49.318v15H26.279v18.479h29.039v14.88H26.279V90.41H8.04V9.533z"/>
	<path class="outline" d="M71.159,10.613c5.879-0.96,14.52-1.68,24.358-1.68c12,0,20.399,1.8,26.159,6.359
		c4.92,3.84,7.56,9.6,7.56,17.039c0,10.2-7.319,17.279-14.279,19.8v0.36c5.64,2.279,8.76,7.56,10.8,14.999
		c2.52,9.239,4.92,19.799,6.479,22.919h-18.719c-1.2-2.4-3.24-8.88-5.521-18.839c-2.279-10.2-5.76-12.84-13.319-12.96h-5.399V90.41
		H71.159V10.613z M89.278,45.412h7.199c9.12,0,14.52-4.56,14.52-11.64c0-7.319-5.039-11.159-13.439-11.159
		c-4.439,0-6.959,0.239-8.279,0.6V45.412z"/>
	<path class="outline" d="M160.677,9.533V90.41h-18.239V9.533H160.677z"/>
	<path class="outline" d="M224.635,56.212h-29.759v19.199h33.238V90.41h-51.478V9.533h49.798v15h-31.559v16.799h29.759V56.212z"/>
	<path class="outline" d="M240.596,90.41V9.533h21.358l16.8,29.639c4.8,8.52,9.479,18.6,13.199,27.719h0.24
		c-1.08-10.679-1.44-21.599-1.44-33.838V9.533h16.8V90.41h-19.199l-17.279-31.199c-4.8-8.639-10.199-19.079-14.039-28.559h-0.48
		c0.601,10.8,0.84,22.199,0.84,35.398V90.41H240.596z"/>
	<path class="outline" d="M323.395,10.733c6.72-1.08,15.479-1.8,24.599-1.8c15.479,0,25.559,2.88,33.238,8.64
		c8.4,6.239,13.68,16.199,13.68,30.479c0,15.479-5.64,26.159-13.319,32.759c-8.52,7.08-21.599,10.439-37.438,10.439
		c-9.479,0-16.319-0.6-20.759-1.2V10.733z M341.634,76.61c1.56,0.36,4.199,0.36,6.359,0.36c16.68,0.12,27.599-9,27.599-28.318
		c0-16.8-9.839-25.68-25.679-25.68c-3.96,0-6.72,0.36-8.279,0.721V76.61z"/>
	<path class="outline" d="M407.514,71.571c4.8,2.52,12.479,5.039,20.279,5.039c8.399,0,12.84-3.479,12.84-8.759
		c0-5.04-3.84-7.92-13.56-11.28c-13.439-4.8-22.319-12.239-22.319-23.999c0-13.799,11.64-24.238,30.599-24.238
		c9.24,0,15.84,1.8,20.64,4.079l-4.08,14.64c-3.12-1.56-9-3.84-16.8-3.84c-7.919,0-11.759,3.72-11.759,7.8
		c0,5.159,4.439,7.439,14.999,11.399c14.279,5.279,20.879,12.72,20.879,24.119c0,13.56-10.319,25.079-32.519,25.079
		c-9.239,0-18.359-2.521-22.919-5.04L407.514,71.571z"/>
</g>
</svg>
